<?xml version="1.0" encoding="UTF-8"?>
<svg width="752pt" height="752pt" version="1.1" viewBox="0 0 752 752" xmlns="http://www.w3.org/2000/svg">
 <path d="m609.32 509.36-10.789-271c-0.015625-0.3125-0.09375-0.60547-0.13281-0.91016-0.042969-0.35547-0.074219-0.72266-0.15234-1.0625-0.082032-0.34375-0.19531-0.66406-0.3125-1-0.11719-0.35547-0.21875-0.72266-0.37891-1.0625-0.10938-0.24219-0.24609-0.46094-0.37891-0.69141-0.21875-0.41406-0.45312-0.82422-0.72266-1.2031-0.074219-0.10156-0.15234-0.18359-0.23438-0.28516-1.9961-2.5859-5.1016-4.2852-8.625-4.2852h-414.67c-0.24609 0-0.47266 0.058594-0.72266 0.074219-0.35547 0.023437-0.72266 0.050781-1.0625 0.10938-0.36328 0.058593-0.71484 0.14453-1.0625 0.24219-0.35156 0.09375-0.69141 0.1875-1.0273 0.32031-0.3125 0.125-0.61328 0.26172-0.91797 0.41406-0.34375 0.16797-0.67188 0.33594-0.99219 0.53906-0.26172 0.16016-0.51172 0.34375-0.75781 0.53125-0.32031 0.24219-0.625 0.48828-0.91797 0.75781-0.21094 0.19531-0.40234 0.40625-0.59766 0.625-0.27734 0.30469-0.53906 0.60547-0.78125 0.94141-0.17578 0.24219-0.32812 0.48828-0.48047 0.75-0.20312 0.34375-0.40234 0.68359-0.56641 1.0508-0.13672 0.29688-0.24609 0.60547-0.35547 0.91797-0.125 0.35156-0.24219 0.69922-0.32813 1.0625-0.085937 0.35547-0.14453 0.72266-0.1875 1.0859-0.027343 0.23438-0.10156 0.44531-0.125 0.67578l-19.469 255.95v0.007812 0.023438c-0.027343 0.40234 0.015626 0.78516 0.027344 1.1797 0.015625 0.34375-0.015625 0.69141 0.027344 1.0195 0.035156 0.29297 0.13672 0.5625 0.19531 0.84375 0.085938 0.42188 0.15234 0.84375 0.29297 1.2461 0.09375 0.28516 0.24219 0.53125 0.35547 0.80078 0.16016 0.37891 0.30469 0.76562 0.51172 1.1211 0.14453 0.24609 0.32812 0.46094 0.49609 0.69922 0.23438 0.34375 0.44531 0.69922 0.71484 1.0117 0.1875 0.21875 0.41406 0.40234 0.62109 0.59766 0.29297 0.29297 0.56641 0.59766 0.89453 0.85156 0.23438 0.18359 0.50391 0.32031 0.75 0.48828 0.33594 0.21875 0.65625 0.46484 1.0273 0.65625 0.24609 0.13281 0.52344 0.19531 0.78516 0.3125 0.40234 0.16016 0.78516 0.35547 1.2148 0.47266 0.18359 0.050781 0.38672 0.058594 0.56641 0.10156 0.51562 0.125 1.043 0.24219 1.5898 0.28516h0.066406c147.65 10.781 297.59 17.012 445.66 18.508 0.058593 0 0.10937 0.015625 0.16016 0.015625 0.15234 0 0.29297 0 0.44531-0.007812h0.007813 0.035156 0.10938c5.9805 0 10.863-4.8242 10.93-10.82 0.003906-1.3984-0.27344-2.7227-0.73828-3.9531z" fill="#192c55"/>
</svg>
