<?xml version="1.0" encoding="UTF-8"?>
<svg width="752pt" height="752pt" version="1.1" viewBox="0 0 752 752" xmlns="http://www.w3.org/2000/svg">
 <path d="m561.21 326.61v222.25c0 3.2773-1.3008 6.418-3.6172 8.7344-2.3164 2.3125-5.457 3.6133-8.7305 3.6133h-111.13c-3.2734 0-6.4141-1.3008-8.7305-3.6133-2.3164-2.3164-3.6172-5.457-3.6172-8.7344v-86.434c-0.015625-17.633-9.4297-33.922-24.707-42.734-15.273-8.8164-34.09-8.8164-49.363 0-15.277 8.8125-24.695 25.102-24.711 42.734v86.434c0.003906 3.2773-1.2969 6.418-3.6133 8.7344-2.3164 2.3125-5.457 3.6133-8.7305 3.6133h-111.13c-3.2773 0-6.418-1.3008-8.7344-3.6133-2.3125-2.3164-3.6133-5.457-3.6133-8.7344v-222.25c-0.003906-3.9883 1.9258-7.7305 5.1719-10.047l172.87-123.47c4.293-3.0625 10.055-3.0625 14.348 0l172.87 123.48v-0.003906c3.2461 2.3164 5.1758 6.0586 5.1719 10.047z" fill="#d4a318"/>
</svg>
