<?xml version="1.0" encoding="UTF-8"?>
<svg width="752pt" height="752pt" version="1.1" viewBox="0 0 752 752" xmlns="http://www.w3.org/2000/svg">
 <path d="m584.74 521.01c-24.145 57.879-80.75 68.023-99.25 68.023-5.4336 0-90.027 4.4844-211.63-110.87-97.867-92.828-109.82-192.66-110.86-211.62-1.0156-18.477 4.2734-64.82 68.027-99.254 7.8984-4.2656 23.562-6.1562 27.605-2.1133 1.793 1.793 55.305 89.848 56.711 92.766 1.4062 2.9141 2.1133 5.7812 2.1133 8.5938 0 4.0195-2.8633 9.0508-8.6016 15.082-5.7305 6.0352-11.961 11.566-18.703 16.59-6.7383 5.0312-12.973 10.355-18.707 15.988-5.7305 5.625-8.5938 10.258-8.5938 13.875 0.38672 9.3906 8.0859 43.031 66.707 94.539 58.637 51.531 86.883 66.047 89.594 67.051 2.7188 1.0039 4.9766 1.5 6.7852 1.5 3.6211 0 8.25-2.8594 13.879-8.5898 5.625-5.7344 24.555-31.68 30.59-37.414 6.0352-5.7266 11.062-8.5898 15.09-8.5898 2.8125 0 5.6797 0.69922 8.5898 2.1094 2.918 1.4062 91.082 53 92.77 54.723 4.5781 4.6875 1.3477 19.32-2.1094 27.609" fill="#d4a318"/>
</svg>
