<?xml version="1.0" encoding="UTF-8"?>
<svg width="752pt" height="752pt" version="1.1" viewBox="0 0 752 752" xmlns="http://www.w3.org/2000/svg">
 <path d="m590.76 495.22c0.76563-4.4414 0.27344-6.7969-0.32812-7.5625-2.6875 0.93359-5.2617 1.4258-7.6719 1.4258-3.3438 0-6.4141-0.93359-9.0977-2.7422-10.578-7.0703-10.906-25.215-10.906-27.242v-2.3555l1.7539-1.5352c3.4531-2.9609-0.98828-17.156-9.7031-31.406l-19.734-2.3555-36.176-36.723 1.6992-3.2891c11.238-21.762 11.016-40.344 10.25-48.125h-35.629l1.2617-6.0859c3.2344-16.004 0.16406-21.047-0.82031-22.254-0.93359-1.0977-1.918-1.1523-2.082-1.1523l-2.1367 0.16406-1.6445-1.5352-32.34-31.352c-15.02-7.6719-16.938-28.504-17.156-30.914l0.054687-0.98828c1.0977-12.824 1.0977-23.898 0.054688-30.969-5.043-3.7266-10.141-9.2617-14.305-14.414l-248.04 8.4375c1.918 6.1953 3.8359 10.906 4.9883 12.66l3.5625-0.60156 0.54687 4.8242 7.6172 26.859c0.60156 1.207 4.9336 8.7695 15.621 8.7695 1.8633 0 3.8906-0.21875 5.918-0.71094 0.4375-0.21875 3.2344-1.043 6.25-1.043 3.6719 0 6.6328 1.207 8.6602 3.5078 4.332 4.9883 3.2344 12.992-3.6172 25.871-0.49219 2.5781-1.6992 11.73 2.9062 18.801 3.0156 4.6055 8.168 7.5078 15.293 8.7148l4.1094 0.71094 6.5234 189.6 0.32813 0.054688-0.27344 2.3008 0.16406 4.9883h-0.71094l-3.1797 29.105 296.21-7.8398 1.0977 0.49219c0.32812 0.16406 8.5508 4.0547 9.8672 12.387 0.93359 5.8086-1.6992 11.84-7.8945 17.867l-4.9883 9.4844 28.008-1.6992c3.7812-5.043 14.91-21.816 11.949-41.656l-0.87891-5.8633h5.918 4.332l-0.49219-10.797h12.938z" fill="#192c55"/>
</svg>
