<?xml version="1.0" encoding="UTF-8"?>
<svg width="752pt" height="752pt" version="1.1" viewBox="0 0 752 752" xmlns="http://www.w3.org/2000/svg">
 <path d="m278.14 162.89c-1.7617-0.03125-3.2891 1.2148-3.6094 2.9492l-68.316 373.48c-0.17188 0.95703 0.046875 1.9414 0.60938 2.7305 0.5625 0.78906 1.4219 1.3203 2.3789 1.4688l291.49 45.547c0.95313 0.14844 1.9258-0.089844 2.7031-0.66016 0.77344-0.57422 1.2891-1.4375 1.4219-2.3906l40.984-293.02c0.13672-0.96484-0.125-1.9453-0.72656-2.7148-0.59766-0.76953-1.4844-1.2617-2.4531-1.3633l-110.04-11.73 12.996-73.637c0.33594-1.8984-0.88281-3.7266-2.7656-4.1445l-163.96-36.434c-0.23828-0.050781-0.48047-0.078125-0.72266-0.082031z" fill="#192c55" fill-rule="evenodd"/>
</svg>
