<?xml version="1.0" encoding="UTF-8"?>
<svg width="752pt" height="752pt" version="1.1" viewBox="0 0 752 752" xmlns="http://www.w3.org/2000/svg">
 <path d="m556.76 162.54-88.277-0.019531-116.87-1.6016-98.105-1.9766-2.0508 61.004-2.7656 2.4023-4.5547 11.391-8.2539-3.3633-11.574-5.9141-12.926-0.58594-4.6758 9.1406 5.0117 10.648-0.79297 16.312 0.58594 14.77 2.3516 15-4.5352 14.707 0.95312 6.8555 2.9453 10.438 4.5547 13.527 7.4766 14.66 11.273 15.105-19.832 14.766-6.6328 34.543-13.23 16.867 2.6641 13.559 1.7266 11.508 10.824 11.012-7.793 14.887-8.543-0.50781-6.6289 14.328 96.195 41.086 147.78 56.758 129.86-0.80078z" fill="#192c55"/>
</svg>
