<?xml version="1.0" encoding="UTF-8"?>
<svg width="752pt" height="752pt" version="1.1" viewBox="0 0 752 752" xmlns="http://www.w3.org/2000/svg">
 <g fill="#d4a318">
  <path d="m170.07 249.03c-0.82031 2.7148-1.2617 5.5938-1.2617 8.5742v236.79c0 16.344 13.254 29.598 29.602 29.598h355.18c16.348 0 29.598-13.254 29.598-29.598v-236.79c0-2.9805-0.4375-5.8594-1.2578-8.5742l-182.28 114.77c-14.457 9.1016-32.855 9.1016-47.309 0z"/>
  <path d="m558.99 228.5c-1.7461-0.32422-3.5508-0.49219-5.3945-0.49219h-355.18c-1.8438 0-3.6484 0.16797-5.3984 0.49219l175.11 110.25c4.8164 3.0312 10.949 3.0312 15.77 0z"/>
 </g>
</svg>
