<?xml version="1.0" encoding="UTF-8"?>
<svg width="752pt" height="752pt" version="1.1" viewBox="0 0 752 752" xmlns="http://www.w3.org/2000/svg">
 <path d="m568.94 440.46 0.60156-14.801 0.32812-0.49219c4.8242-7.9492 0.82031-12.77-0.54688-14.031-1.4258-0.38281-2.4102-1.3164-2.6328-2.5195-0.49219-2.4102 2.0273-4.1094 4.5508-5.4805 3.8359-2.0273 5.043-12.168 5.043-16.773l0.054688-0.38281c2.082-9.2617-7.3984-18.035-7.4531-18.145l-2.0273-1.8633 1.8086-1.3711c-0.054688-0.93359-0.82031-3.5078-2.2461-6.6328-8.4961-2.9609-7.7852-15.949-7.4531-19.074-1.2617-6.1406-0.21875-40.891 0.054688-47.906 0-0.54688-0.16406-0.93359-0.60156-1.2617-0.60156-0.4375-1.8633-0.98828-4.6602-0.98828s-5.8633 0.54688-7.6172 0.93359c-0.54688 0.49219-1.1523 0.87891-1.8633 1.0977-0.49219 0.16406-0.98828 0.21875-1.5352 0.21875-5.207 0-11.184-7.8398-12.938-10.25-3.0703-3.0156-4.6602-3.8359-5.3164-4.0547-0.10938 0.49219-0.10938 1.3711 0.054687 2.3008l0.49219 2.6875h-10.195l-0.65625-0.65625c-1.6992-1.6992-2.6875-1.8633-3.0156-1.8633-0.71094 0.10938-1.1523 0.87891-1.2617 1.0977l-0.49219 1.207-12.004 1.8086c-2.2461 2.0273-4.9336 3.0703-7.9492 3.0703-4.1641 0-7.8945-2.0273-9.3164-2.9062l-8.9883-0.10938c-0.71094 2.082-1.918 3.4531-3.6172 4.1094-0.65625 0.27344-1.4258 0.38281-2.1914 0.38281-5.3164 0-11.949-6.3047-14.141-8.5508l-2.3555-0.71094c-1.1523 2.5781-3.8359 3.7266-6.0859 3.7266-3.7812 0-6.25-0.98828-7.3438-3.0156-0.49219-0.87891-0.65625-1.8633-0.49219-2.9609-1.5352-0.4375-2.7422-1.207-3.5625-2.3555-0.4375-0.60156-0.76562-1.3711-0.93359-2.1367l-2.9609 0.27344c-0.38281 1.3711-1.0977 2.3555-2.4102 2.6328-0.16406 0.054687-0.38281 0.054687-0.54688 0.054687-1.5352 0-2.8516-1.2617-3.8359-3.6719l-0.054688-0.10938-0.10938-0.49219c-1.043-0.98828-8.4414-2.9609-19.676-3.5078l-2.1914-0.10938v-2.1914c0-3.125-0.21875-5.0977-0.49219-6.3594-0.4375 1.2617-1.1523 2.1367-2.1914 2.6875-0.54688 0.27344-1.1523 0.4375-1.8086 0.4375-1.5898 0-2.8516-0.87891-3.0703-1.043l-0.49219-0.32812c-0.87891 0.76562-1.8633 1.043-2.4648 1.1523-0.21875 0.054687-0.49219 0.054687-0.71094 0.054687-5.3164 0-11.84-8.332-13.648-10.906l-1.1523-1.5352 1.1523-1.207c0.98828-3.5078 2.2461-37.766 2.9609-69.941l-85.891-2.6875-12.113 167.29-2.1914-0.054687c-16.336-0.38281-97.676-2.6328-105.84-7.9492-1.207-0.49219-3.7812-1.2617-5.7539-1.2617-0.87891 0-1.4805 0.16406-1.7539 0.4375-0.054688 0.054688-1.3711 1.5898 2.4648 8.7695l0.054687 0.10937 2.4648 0.27344c10.469 3.3438 10.961 14.25 10.961 14.25 12.824 4.7695 21.375 21.871 21.375 21.871 18.527 12.387 21.871 27.078 21.871 27.078-4.2734 29.488 12.824 32.832 12.824 32.832 14.746 5.6992 22.363 16.168 22.363 16.168 9.9766 11.402 16.168-1.918 16.168-1.918 9.5391-17.102 12.387-19.512 12.387-19.512 3.7812 0 10.961-7.125 10.961-7.125 12.824 8.0586 31.406 3.7812 31.406 3.7812l-0.93359 1.918c-0.93359 1.918 24.227 26.145 24.227 26.145-2.8516 5.6992 6.1953 20.445 6.1953 20.445 2.8516 17.102 7.6172 12.824 7.6172 12.824-0.93359 4.2734 14.746 22.801 14.746 22.801 11.402 2.3555 6.6328 13.32 6.6328 13.32 4.7695 2.8516 0.93359 12.387 0.93359 12.387 9.9766 1.4258 8.5508 10.961 8.5508 10.961 0.49219 15.238 23.297 17.102 23.297 17.102 7.6172 8.5508 13.812 6.6328 13.812 6.6328 16.223-0.93359 15.676 6.6328 15.676 6.6328 8.0586 6.6328 12.387-2.8516 12.387-2.8516-21.375-48.016 13.32-76.574 13.32-76.574 2.8516 0.49219 19.953-13.812 19.953-13.812 3.3438-4.2734 31.406-15.238 31.406-15.238 6.6328-9.9766 19.953-17.102 19.953-17.102l-1.4258-4.2734c9.0312-5.2617 17.09-8.7148 24.105-10.906z" fill="#192c55"/>
</svg>
